<svg id="Capa_1" data-name="Capa 1" xmlns="http://www.w3.org/2000/svg" viewBox="0 0 512 512"><defs><style>.cls-1{fill:#5AAB9F;}</style></defs><title>corredor</title><path class="cls-1" d="M477.1,225.24c-6.5-12.41-17.35-19.07-31.37-19.25-8.65-.12-17.43-.11-25.92-.11-7.73,0-15.72,0-23.57-.06a6.41,6.41,0,0,1-2.28-.43c-10.18-9.77-20.89-20.35-33.64-33.24,4.83-21.23-2.43-38.43-21-49.76-5.44-3.32-11-6.64-16.36-9.86-5-3-10-6-14.95-9a46.43,46.43,0,0,0-24.27-7q-41.35,0-82.71,0H181.66a31.12,31.12,0,0,0-22.93,9.71c-3.58,3.64-7.34,7.28-11,10.8-1.85,1.78-3.68,3.57-5.51,5.36l-12.33,12.08C119.12,145,107.94,156,97,166.78s-14.11,25.14-8.34,38.14a33,33,0,0,0,24.21,19.39,33.65,33.65,0,0,0,30.2-9.53c8.41-8.32,16.87-16.87,25-25.13,6.56-6.64,13.35-13.49,20.06-20.18a8,8,0,0,1,1.38-1.11c13.22.91,26.27,2,40.07,3.19l1.3.11q-11.17,16-22.37,32l-13.63,19.48c-11.84,16.93-15.13,35.34-9.82,54.73a2.13,2.13,0,0,1,.08.34,6.76,6.76,0,0,1-.6.82c-11,13.53-24.07,29.53-37,45.72-.87,1.1-1.09,1.16-2.35,1.16-23-.12-49.71-.24-76.37,0A44.74,44.74,0,0,0,52,329.38c-15.68,6.79-24.2,23.7-20.71,41.1A36.58,36.58,0,0,0,67,399.62c14.86.05,30,0,44.58,0,21.19,0,43.1,0,64.63.15,8.35.09,14.47-2.89,19.75-9.63,10.82-13.8,21.6-27.16,33-41.3l8.55-10.6,5.16,4.6c8.68,7.77,16.88,15.1,25.44,22.43a9.13,9.13,0,0,1,3.62,8c-.12,21.11-.11,42.55-.11,63.29q0,17.34,0,34.68c0,11,2.93,19.83,9,27.06a38.75,38.75,0,0,0,42.49,11.39c15.91-5.7,25.35-20,25.27-38.13q-.13-31.78-.32-63.58-.19-33.92-.35-67.85a30.88,30.88,0,0,0-10.15-23.34c-8.31-7.73-16.72-15.65-24.84-23.31q-9.56-9-19.11-17.94l-.25-.24,26.27-39.07q8.85,8.83,17.7,17.7l13.3,13.28a34.53,34.53,0,0,0,25.17,10.62H376q14,0,28,0c13.79,0,28.05,0,42.09,0,12.42-.06,22.59-5.72,29.42-16.37C482.9,249.91,483.46,237.38,477.1,225.24ZM217.33,320.43,204,337c-2.48,3.09-5,6.18-7.47,9.27-6.67,8.27-13.57,16.81-20.27,25.31-.88,1.11-1.14,1.18-2.34,1.18-19.24-.06-38.76-.07-57.78-.07h-5.81q-20.72,0-41.45,0a11.4,11.4,0,0,1-8.32-3,9.6,9.6,0,0,1-2.62-7c0-6.06,4.27-9.85,11.09-9.86h1.65c25.6-.05,52.08-.1,78.1.07H149a19.91,19.91,0,0,0,16.67-8c9.1-11.4,18.51-22.87,27.62-34,2-2.44,4-4.89,6-7.34ZM331.31,171c-14.67,21.9-29.64,44.15-44.13,65.66q-10,14.81-19.93,29.62c-7.32,10.9-6.78,15.5,2.95,24.59l10.47,9.8c12.1,11.35,24.63,23.08,37,34.52a7.37,7.37,0,0,1,2.72,6.16c.07,26.21.19,52.84.31,78.6q.12,26.16.23,52.31c0,4.18-1.14,7.55-3.35,9.77a9.14,9.14,0,0,1-3.46,2.19,12.82,12.82,0,0,1-4.49.75c-7.11,0-11.38-4.76-11.4-12.72,0-11.79,0-23.78,0-35.39V421.79q0-7.2,0-14.41c0-11.48-.05-23.35.08-35,.13-10.64-3.65-19.2-11.56-26.13-11.12-9.75-22.37-19.77-33.23-29.45-9.31-8.29-18.92-16.85-28.43-25.23-18.52-16.31-20.83-35.51-6.66-55.5q9.52-13.43,19-26.85,13.56-19.15,27.13-38.3l.36-.51c2.22-3.11,7.43-10.38,1.66-17.36-3.38-4.07-9.13-6-13.38-6.42-9.68-1-19.51-1.82-29-2.63-9.66-.82-19.66-1.67-29.44-2.66a37,37,0,0,0-3.88-.21c-9,0-16.44,3.45-23.3,10.66-10.87,11.45-22.26,22.83-33.27,33.83-3.23,3.24-6.47,6.46-9.7,9.71-2.27,2.27-5.71,4.43-9.24,1.76a5.84,5.84,0,0,1-2.5-4.26c-.15-2.09.9-4.34,2.92-6.34,11-10.91,22.19-21.95,33.05-32.62l14.26-14c1.39-1.37,2.75-2.77,4.11-4.18a105.8,105.8,0,0,1,9.09-8.66c2-1.57,4.48-2.72,6-2.73,35.43-.32,68.25-.32,100.35,0a25.32,25.32,0,0,1,11.13,3.11c8.73,4.73,17.43,10.07,25.83,15.23l6.2,3.79c4.83,2.94,7.89,6.76,8.82,11S334.42,166.37,331.31,171Zm117.58,79.23a20.36,20.36,0,0,1-6.48.84c-6,0-12.17,0-18.13-.1-12-.12-24.45-.26-36.73.41-11.09.61-18.45-2.45-25.45-10.54-6.64-7.67-14.05-14.83-21.22-21.74-1.92-1.85-3.87-3.75-5.83-5.66l11.56-17.19,5.2,5.1c8,7.8,16.21,15.88,24.21,23.88a24.29,24.29,0,0,0,18.36,7.44c16.38-.17,33.31-.18,50.31,0,5.39,0,9.1,3,9.95,7.82A9.13,9.13,0,0,1,448.89,250.25Z"/><path class="cls-1" d="M365.86,0h-.2a59.27,59.27,0,0,0-59.39,59.19C306.2,92.1,332.7,118.93,365.33,119h.14a59.81,59.81,0,0,0,59.76-59.55v-.14A59.52,59.52,0,0,0,365.86,0Zm32.35,60.2C398,78.08,383.71,92,365.58,92h-.18a32,32,0,0,1-22.84-9.57,32.6,32.6,0,0,1,23-55.43h.21A32.32,32.32,0,0,1,398.21,60.2Z"/></svg>